<svg width="42" height="41" viewBox="0 0 42 41" fill="none" xmlns="http://www.w3.org/2000/svg">
<circle cx="21.099" cy="20.4198" r="19.9198" stroke="#D9B679"/>
<path d="M16.9382 28.8657H13.5707V18.0213H16.9382V28.8657ZM15.2526 16.542C14.1758 16.542 13.3024 15.6501 13.3024 14.5733C13.3024 14.0561 13.5078 13.56 13.8736 13.1943C14.2393 12.8285 14.7354 12.623 15.2526 12.623C15.7699 12.623 16.2659 12.8285 16.6316 13.1943C16.9974 13.56 17.2029 14.0561 17.2029 14.5733C17.2029 15.6501 16.3291 16.542 15.2526 16.542ZM29.5417 28.8657H26.1815V23.5867C26.1815 22.3286 26.1561 20.7152 24.4306 20.7152C22.6798 20.7152 22.4115 22.0821 22.4115 23.4961V28.8657H19.0476V18.0213H22.2774V19.5006H22.3245C22.7741 18.6485 23.8723 17.7494 25.5107 17.7494C28.9189 17.7494 29.5454 19.9937 29.5454 22.9087V28.8657H29.5417Z" fill="#D9B679"/>
</svg>
