<svg width="37" height="37" viewBox="0 0 37 37" fill="none" xmlns="http://www.w3.org/2000/svg">
<path d="M16.9584 24.2257H20.0417C20.8897 24.2257 21.5834 23.5564 21.5834 22.7384H32.3597V28.6877C32.3597 30.3237 30.9722 31.6623 29.2763 31.6623H7.70842C6.01258 31.6623 4.62508 30.3237 4.62508 28.6877V22.7384H15.4167C15.4167 23.5564 16.1105 24.2257 16.9584 24.2257ZM6.16675 10.8399H12.3334C12.3334 7.55292 15.093 4.89062 18.5001 4.89062C21.9072 4.89062 24.6667 7.55292 24.6667 10.8399H30.8334C32.5292 10.8399 33.9167 12.1785 33.9167 13.8145V18.2765C33.9167 19.9274 32.5447 21.2511 30.8334 21.2511H21.5834V19.7638C21.5834 18.9457 20.8897 18.2765 20.0417 18.2765H16.9584C16.1105 18.2765 15.4167 18.9457 15.4167 19.7638V21.2511H6.16675C4.47091 21.2511 3.08342 19.9125 3.08342 18.2765V13.8145C3.08342 12.1785 4.47091 10.8399 6.16675 10.8399ZM21.5834 10.8399C21.5834 9.20384 20.1959 7.86525 18.5001 7.86525C16.8042 7.86525 15.4167 9.20384 15.4167 10.8399H21.5988H21.5834Z" fill="#D9B679"/>
</svg>
