<svg width="21" height="26" viewBox="0 0 21 26" fill="none" xmlns="http://www.w3.org/2000/svg">
<path d="M1.03799 13.1045L3.25765 14.0563C3.47101 14.1478 3.70121 14.1972 3.93466 14.2014C4.16811 14.2057 4.40007 14.1648 4.61687 14.0811L5.31505 13.8113C5.55908 13.7171 5.77796 13.571 5.9554 13.384C6.13284 13.1969 6.26427 12.9737 6.33993 12.7308L6.84362 11.1154C6.88946 10.9383 6.97447 10.7729 7.09282 10.6306C7.21117 10.4882 7.36005 10.3722 7.52924 10.2906L8.73768 9.70661V12.3592C8.73777 12.8291 8.60223 13.2897 8.34624 13.6894C8.09024 14.0892 7.72392 14.4122 7.28832 14.6224L4.16234 16.1324C3.43666 16.4828 2.82646 17.0213 2.40007 17.6874C1.97369 18.3535 1.74797 19.1211 1.74819 19.904V20.6692H19.2224V10.5499C19.2224 4.96316 14.5286 0.430542 8.73768 0.430542H0.655575C0.481707 0.430542 0.31496 0.497176 0.192016 0.615785C0.0690729 0.734394 3.94255e-06 0.895262 3.94255e-06 1.063C-8.50039e-05 1.2017 0.0334006 1.3385 0.0977933 1.4625L0.874099 2.96038L0.382421 3.43472C0.260769 3.55249 0.164376 3.69225 0.0987578 3.84599C0.0331391 3.99973 -0.000418674 4.16444 3.94255e-06 4.33071V11.5623C-0.000203422 11.8887 0.0977555 12.2082 0.282 12.4819C0.466245 12.7556 0.728859 12.9719 1.03799 13.1045ZM2.84081 5.49021C3.05691 5.49021 3.26816 5.55204 3.44784 5.66786C3.62752 5.78369 3.76756 5.94832 3.85026 6.14093C3.93296 6.33354 3.9546 6.54548 3.91244 6.74996C3.87028 6.95443 3.76622 7.14225 3.61341 7.28967C3.46061 7.43709 3.26592 7.53748 3.05397 7.57816C2.84203 7.61883 2.62234 7.59795 2.42269 7.51817C2.22304 7.43839 2.05239 7.30328 1.93233 7.12994C1.81228 6.95659 1.74819 6.75279 1.74819 6.54431C1.74819 6.26475 1.86331 5.99663 2.06821 5.79895C2.27312 5.60127 2.55103 5.49021 2.84081 5.49021ZM20.1042 22.3558H0.874099C0.642275 22.3558 0.419945 22.4446 0.25602 22.6028C0.0920959 22.7609 3.94255e-06 22.9754 3.94255e-06 23.1991V24.8856C3.94255e-06 25.1093 0.0920959 25.3238 0.25602 25.4819C0.419945 25.6401 0.642275 25.7289 0.874099 25.7289H20.1042C20.336 25.7289 20.5583 25.6401 20.7223 25.4819C20.8862 25.3238 20.9783 25.1093 20.9783 24.8856V23.1991C20.9783 22.9754 20.8862 22.7609 20.7223 22.6028C20.5583 22.4446 20.336 22.3558 20.1042 22.3558Z" fill="#D9B679"/>
</svg>
