<svg width="30" height="26" viewBox="0 0 30 26" fill="none" xmlns="http://www.w3.org/2000/svg">
<path d="M27.8343 9.70661L24.9435 3.66398C25.1543 3.47951 25.3231 3.2548 25.4393 3.00413C25.5553 2.75338 25.6162 2.48216 25.618 2.20757C25.6162 1.76192 25.4574 1.33012 25.1674 0.983187C24.8775 0.636254 24.4738 0.394843 24.0227 0.29868C23.5717 0.202516 23.1001 0.257311 22.6857 0.454067C22.2712 0.650814 21.9384 0.977798 21.7422 1.38123L7.12752 4.96545C6.76702 4.6663 6.30749 4.50141 5.83201 4.50066C5.41947 4.49796 5.01595 4.61699 4.67552 4.84177C4.33502 5.06655 4.07394 5.38634 3.92714 5.7583C3.78039 6.13025 3.75497 6.53666 3.85433 6.92295C3.95367 7.30924 4.17297 7.65703 4.48298 7.91963L1.51721 14.1172L10.1361 14.0862L7.18104 7.88864C7.49595 7.61627 7.71331 7.25467 7.80207 6.8557L13.0805 5.56459V21.4303H12.9734L5.84275 23.5685C5.61466 23.6381 5.41527 23.7755 5.27298 23.961C5.1307 24.1464 5.05283 24.3706 5.05041 24.6013V24.6737C5.04116 24.8189 5.0638 24.9644 5.11693 25.1006C5.16998 25.2367 5.25229 25.3606 5.3584 25.464C5.46459 25.5673 5.5921 25.6479 5.73283 25.7004C5.87348 25.7529 6.02401 25.7761 6.17462 25.7685H23.1876C23.3373 25.776 23.4869 25.753 23.6267 25.7011C23.7666 25.6493 23.8936 25.5697 23.9996 25.4674C24.1056 25.3651 24.1881 25.2427 24.2419 25.1076C24.2957 24.9727 24.3195 24.8284 24.3118 24.684V24.6013C24.3102 24.3719 24.2338 24.1487 24.0936 23.9634C23.9533 23.778 23.7563 23.6399 23.5302 23.5685L16.4102 21.4303H16.2925V4.90353L21.9885 3.44708L22.2026 3.66398L19.3011 9.72725C19.9418 9.72725 27.2471 9.70661 27.8343 9.70661ZM3.28382 14.1172L5.83201 8.7873L8.34484 14.0934L3.28382 14.1172ZM23.6266 4.53165L26.1105 9.69625H21.1105L23.6266 4.53165Z" fill="#D9B679"/>
<path fill-rule="evenodd" clip-rule="evenodd" d="M5.83456 18.053C7.64872 18.053 9.19915 16.9638 9.82159 15.4262C8.33369 15.4262 7.38383 15.4262 6.57625 15.4262C5.22185 15.4263 4.26778 15.4263 1.84758 15.4262C2.47 16.9638 4.02047 18.053 5.83456 18.053ZM0.209749 15.4262C0.0730409 14.9483 0 14.445 0 13.9252H1.55588C4.19932 13.9252 5.17299 13.9252 6.5855 13.9252H10.1132H11.6691V13.9272C11.669 14.4463 11.5959 14.9489 11.4594 15.4262C10.7785 17.8062 8.51807 19.554 5.83456 19.554C3.15103 19.554 0.890642 17.8062 0.209749 15.4262Z" fill="#D9B679"/>
<path fill-rule="evenodd" clip-rule="evenodd" d="M23.265 13.772C25.0791 13.772 26.6296 12.6828 27.2519 11.1452C25.7641 11.1452 24.8143 11.1452 24.0067 11.1452C22.6523 11.1453 21.6981 11.1453 19.278 11.1452C19.9004 12.6828 21.4508 13.772 23.265 13.772ZM17.6402 11.1452C17.5035 10.6673 17.4304 10.164 17.4304 9.64417H18.9863C21.6298 9.64424 22.6034 9.64424 24.0159 9.64417H27.5437H29.0996V9.64619C29.0993 10.1652 29.0263 10.6679 28.8898 11.1452C28.2089 13.5252 25.9485 15.273 23.265 15.273C20.5814 15.273 18.321 13.5252 17.6402 11.1452Z" fill="#D9B679"/>
</svg>
